<svg id="Layer_1" data-name="Layer 1" xmlns="http://www.w3.org/2000/svg" width="205.71" height="205.71" viewBox="0 0 205.71 205.71"><defs><style>.cls-1,.cls-2,.cls-3{fill-rule:evenodd;}.cls-2{fill:#fff;}.cls-3,.cls-4{fill:#231f20;}.cls-4{font-size:69.73px;font-family:CheltenhamStd-UltraCondIt, ITC Cheltenham Std;font-style:italic;}</style></defs><title>Artboard 2</title><g id="Symbol"><path class="cls-1" d="M108,2.88l3.51,6.9L108,16.68l-3.51-6.9Z"/><path class="cls-1" d="M107.83,9.17A17.67,17.67,0,1,1,90.17,26.84,17.67,17.67,0,0,1,107.83,9.17Z"/><path class="cls-1" d="M139.9,22a13.44,13.44,0,1,1-13.43,13.43A13.43,13.43,0,0,1,139.9,22Z"/><path class="cls-1" d="M75.77,22A13.44,13.44,0,1,1,62.33,35.43,13.44,13.44,0,0,1,75.77,22Z"/><path class="cls-1" d="M107.83,17.89a45.5,45.5,0,1,1-45.5,45.5A45.5,45.5,0,0,1,107.83,17.89Z"/><path class="cls-2" d="M107.71,56.37A24.32,24.32,0,1,1,83.39,80.69,24.32,24.32,0,0,1,107.71,56.37Z"/><path class="cls-3" d="M107.71,60a4.48,4.48,0,1,1-4.48,4.48A4.47,4.47,0,0,1,107.71,60Z"/></g><text class="cls-4" transform="translate(68.13 171.49)">KB</text></svg>