<svg id="Layer_1" data-name="Layer 1" xmlns="http://www.w3.org/2000/svg" width="205.71" height="205.71" viewBox="0 0 205.71 205.71"><defs><style>.cls-1,.cls-2,.cls-3{fill-rule:evenodd;}.cls-2{fill:#fff;}.cls-3{fill:#231f20;}</style></defs><title>Kaiser Bear Symbol</title><g id="Symbol"><path class="cls-1" d="M103.09,2.88l6.53,12.84-6.53,12.84L96.55,15.72Z"/><path class="cls-1" d="M102.86,14.6A32.89,32.89,0,1,1,70,47.48,32.88,32.88,0,0,1,102.86,14.6Z"/><path class="cls-1" d="M162.56,38.47a25,25,0,1,1-25,25A25,25,0,0,1,162.56,38.47Z"/><path class="cls-1" d="M43.17,38.47a25,25,0,1,1-25,25A25,25,0,0,1,43.17,38.47Z"/><path class="cls-1" d="M102.86,30.82a84.7,84.7,0,1,1-84.7,84.69A84.7,84.7,0,0,1,102.86,30.82Z"/><path class="cls-2" d="M102.64,102.45a45.28,45.28,0,1,1-45.28,45.28A45.27,45.27,0,0,1,102.64,102.45Z"/><path class="cls-3" d="M102.64,109.21a8.34,8.34,0,1,1-8.34,8.33A8.33,8.33,0,0,1,102.64,109.21Z"/></g></svg>