<svg id="Layer_1" data-name="Layer 1" xmlns="http://www.w3.org/2000/svg" width="205.71" height="205.71" viewBox="0 0 205.71 205.71"><defs><style>.cls-1,.cls-2,.cls-3{fill-rule:evenodd;}.cls-2{fill:#fff;}.cls-3,.cls-4{fill:#231f20;}</style></defs><title>Kaiser Bear</title><g id="Symbol"><path class="cls-1" d="M108,2.88l3.51,6.9L108,16.68l-3.51-6.9Z"/><path class="cls-1" d="M107.83,9.17A17.67,17.67,0,1,1,90.17,26.84,17.67,17.67,0,0,1,107.83,9.17Z"/><path class="cls-1" d="M139.9,22a13.44,13.44,0,1,1-13.43,13.43A13.43,13.43,0,0,1,139.9,22Z"/><path class="cls-1" d="M75.77,22A13.44,13.44,0,1,1,62.33,35.43,13.44,13.44,0,0,1,75.77,22Z"/><path class="cls-1" d="M107.83,17.89a45.5,45.5,0,1,1-45.5,45.5A45.5,45.5,0,0,1,107.83,17.89Z"/><path class="cls-2" d="M107.71,56.37A24.32,24.32,0,1,1,83.39,80.69,24.32,24.32,0,0,1,107.71,56.37Z"/><path class="cls-3" d="M107.71,60a4.48,4.48,0,1,1-4.48,4.48A4.47,4.47,0,0,1,107.71,60Z"/></g><path class="cls-4" d="M99.51,131.47c.84-.91,1.46-1.54,1.46-2.38,0-1.39-1.74-1.39-1.74-2.78a17.12,17.12,0,0,1,1-3.63h16l-.76,3.21c-.56,2.3-3.14,1.46-8.86,5.71-3.49,2.58-6.9,7.12-8.23,8.51l5.79,22.94c.91,3.63,3.91,2.58,3.91,4.82a28.11,28.11,0,0,1-.84,3.62H87.31l.55-2.93c.63-3,3.21-1.95,3.21-4.46a21.17,21.17,0,0,0-.77-3.63l-3.55-13.59h-.14l-3.28,13a18.18,18.18,0,0,0-.84,4.39c0,1.81,1.68,1.95,1.68,3.49a24.2,24.2,0,0,1-.84,3.76H63.67l.62-2.72c.91-3.9,3.91-1.6,5-5.92l7.74-29.64a15.25,15.25,0,0,0,.56-3.56c0-1.67-1.88-1.81-1.88-3.07a9.33,9.33,0,0,1,.21-1.46l.56-2.44H95.39L94.63,126c-.63,2.65-2.79,1.11-4,5.64l-3.21,12.21.14.14Z"/><path class="cls-4" d="M120.35,133.91a15.65,15.65,0,0,0,.7-3.63c0-2.3-2.51-2.16-2.51-4.25a6.41,6.41,0,0,1,.35-1.75l.56-1.6h20.71c6.83,0,13.11,1.11,13.11,9.34,0,7.6-5,13.25-14.16,13.74v.14c6.14,1,9.7,4.74,9.7,10,0,13-11,15.55-21.69,15.55H106.69l.9-3.69c.56-2.17,4.12-1.19,5-4.68Zm4.4,31.58h1.88a7,7,0,0,0,6.42-3.48,16.27,16.27,0,0,0,2.51-8c0-4.39-2.93-4.53-6.35-4.53ZM131.09,143c2.93,0,5.3-.7,7.12-3.14a12.29,12.29,0,0,0,2.23-6.9c0-3.7-2-4.32-5.3-4.32Z"/></svg>