<svg width="143" height="116" viewBox="0 0 143 116" fill="none" xmlns="http://www.w3.org/2000/svg">
<path d="M129.651 115.447H13.3485C8.76388 115.447 5.04703 111.719 5.04703 107.12L0 8.87931C0 4.28093 3.71686 0.553467 8.30152 0.553467H134.697C139.282 0.553467 142.999 4.28121 142.999 8.87931L137.952 107.12C137.952 111.719 134.235 115.447 129.651 115.447V115.447Z" fill="url(#paint0_linear)"/>
<path d="M134.698 115.447H8.30152C3.71685 115.447 0 111.719 0 107.12C0 104.798 0.956131 102.579 2.64212 100.988L65.0528 42.0837C68.6749 38.6653 74.3242 38.6653 77.9463 42.0837L140.357 100.988C142.043 102.579 142.999 104.798 142.999 107.12C142.999 111.719 139.282 115.447 134.698 115.447V115.447Z" fill="url(#paint1_linear)"/>
<path d="M1.18726 85.5485V107.121C1.18726 111.719 4.84242 115.446 9.3511 115.446H133.648C138.156 115.446 141.811 111.719 141.811 107.121V85.5485H1.18726Z" fill="url(#paint2_linear)"/>
<path d="M0 8.87959V107.121C0 111.719 3.71686 115.447 8.30152 115.447H13.6738V0.553467H8.30152C3.71686 0.553467 0 4.28121 0 8.87959H0Z" fill="url(#paint3_linear)"/>
<path d="M2.92264 15.012L109.913 115.447H134.698C139.283 115.447 142.999 111.719 142.999 107.121V8.87963C142.999 4.28125 139.282 1.11621 134.698 1.11621H8.30164C3.71698 1.11593 0.280518 4.28125 0.280518 8.87963C0.280518 11.2016 1.23665 13.4206 2.92264 15.012V15.012Z" fill="url(#paint4_linear)"/>
<path d="M142.999 8.87959V107.121C142.999 111.719 139.282 115.447 134.697 115.447H129.325V0.553467H134.697C139.282 0.553467 142.999 4.28121 142.999 8.87959V8.87959Z" fill="url(#paint5_linear)"/>
<path d="M134.697 1.11597H129.325V52.0142H142.999V9.44209C142.999 4.84371 139.282 1.11597 134.697 1.11597V1.11597Z" fill="url(#paint6_linear)"/>
<path d="M8.30152 1.11597H13.6738V52.0142H0V9.44209C0 4.84371 3.71686 1.11597 8.30152 1.11597V1.11597Z" fill="url(#paint7_linear)"/>
<path d="M134.698 0.553467H8.30152C3.71685 0.553467 0 4.28121 0 8.87959C0 11.2018 0.956131 12.5773 2.64212 14.1686L65.0528 73.0727C68.6749 76.4911 74.3242 76.4911 77.9463 73.0727L140.357 14.1684C142.043 12.577 142.999 11.2016 142.999 8.87959C142.999 4.28121 139.282 0.553467 134.698 0.553467V0.553467Z" fill="url(#paint8_linear)"/>
<path d="M134.525 0.553467C134.194 0.553467 133.876 0.680012 133.636 0.90695L77.9466 53.4672C74.3245 56.8856 68.6752 56.8856 65.0531 53.4672L9.36453 0.907233C9.12395 0.680013 8.80571 0.553467 8.47541 0.553467C4.23955 0.553467 0.554942 3.66902 0.0586508 7.88804C-0.255667 10.5604 0.717849 13.1954 2.64273 15.012L65.0534 73.9161C68.6755 77.3345 74.3248 77.3345 77.9469 73.9161L140.358 15.012C142.282 13.1951 143.256 10.5604 142.942 7.88804C142.445 3.66902 138.76 0.553467 134.525 0.553467V0.553467Z" fill="url(#paint9_linear)"/>
<defs>
<linearGradient id="paint0_linear" x1="61.3979" y1="30.817" x2="106.842" y2="128.091" gradientUnits="userSpaceOnUse">
<stop stop-color="#E3E5E4"/>
<stop offset="1" stop-color="#CBD0E4"/>
</linearGradient>
<linearGradient id="paint1_linear" x1="58.0529" y1="93.6147" x2="81.4805" y2="116.974" gradientUnits="userSpaceOnUse">
<stop stop-color="#EBEFF0"/>
<stop offset="1" stop-color="#E3E5E4"/>
</linearGradient>
<linearGradient id="paint2_linear" x1="71.4993" y1="97.3971" x2="71.4993" y2="121.454" gradientUnits="userSpaceOnUse">
<stop stop-color="#CBD0E4" stop-opacity="0"/>
<stop offset="1" stop-color="#6A7D83"/>
</linearGradient>
<linearGradient id="paint3_linear" x1="4.86001" y1="58" x2="16.2688" y2="58" gradientUnits="userSpaceOnUse">
<stop stop-color="#060606"/>
<stop offset="1" stop-color="#2D2D2D"/>
</linearGradient>
<linearGradient id="paint4_linear" x1="117.753" y1="57.7335" x2="100.127" y2="39.225" gradientUnits="userSpaceOnUse">
<stop stop-color="#CBD0E4" stop-opacity="0"/>
<stop offset="1" stop-color="#6A7D83"/>
</linearGradient>
<linearGradient id="paint5_linear" x1="135.522" y1="58" x2="144.308" y2="58" gradientUnits="userSpaceOnUse">
<stop stop-color="#303030"/>
<stop offset="1"/>
</linearGradient>
<linearGradient id="paint6_linear" x1="140.41" y1="33.97" x2="128.595" y2="20.6467" gradientUnits="userSpaceOnUse">
<stop stop-color="#494949" stop-opacity="0"/>
<stop offset="0.2669" stop-color="#2C2C2C" stop-opacity="0.267"/>
<stop offset="0.7232" stop-color="#646464" stop-opacity="0.723"/>
<stop offset="1" stop-color="#313131"/>
</linearGradient>
<linearGradient id="paint7_linear" x1="2.58885" y1="33.97" x2="14.4039" y2="20.6467" gradientUnits="userSpaceOnUse">
<stop stop-color="#CBCBCB" stop-opacity="0"/>
<stop offset="0.2669" stop-color="#C6C6C6" stop-opacity="0.267"/>
<stop offset="0.7232" stop-color="#848484" stop-opacity="0.723"/>
<stop offset="1" stop-color="#CCCCCC"/>
</linearGradient>
<linearGradient id="paint8_linear" x1="65.7252" y1="1.49356" x2="97.1774" y2="39.544" gradientUnits="userSpaceOnUse">
<stop stop-color="#EBEFF0"/>
<stop offset="1" stop-color="#E3E5E4"/>
</linearGradient>
<linearGradient id="paint9_linear" x1="73.1895" y1="11.7615" x2="109.611" y2="72.9722" gradientUnits="userSpaceOnUse">
<stop stop-color="#050505"/>
<stop offset="1" stop-color="#646464"/>
</linearGradient>
</defs>
</svg>
