<svg width="116" height="116" viewBox="0 0 116 116" fill="none" xmlns="http://www.w3.org/2000/svg">
<g clip-path="url(#clip0)">
<rect width="116" height="116" rx="40" fill="url(#paint0_linear)"/>
<path d="M58 10.4545C73.486 10.4545 75.3227 10.5125 81.4417 10.7928C97.1597 11.5082 104.501 18.966 105.217 34.568C105.497 40.6822 105.55 42.5188 105.55 58.0048C105.55 73.4957 105.492 75.3275 105.217 81.4417C104.497 97.0292 97.1742 104.501 81.4417 105.217C75.3227 105.497 73.4957 105.555 58 105.555C42.514 105.555 40.6773 105.497 34.5632 105.217C18.8065 104.497 11.5033 97.005 10.788 81.4368C10.5077 75.3227 10.4497 73.4908 10.4497 58C10.4497 42.514 10.5125 40.6822 10.788 34.5632C11.5082 18.966 18.8307 11.5033 34.5632 10.788C40.6822 10.5125 42.514 10.4545 58 10.4545V10.4545ZM58 0C42.2482 0 40.2762 0.0676667 34.0895 0.348C13.0258 1.31467 1.3195 13.0017 0.352833 34.0847C0.0676667 40.2762 0 42.2482 0 58C0 73.7518 0.0676667 75.7287 0.348 81.9153C1.31467 102.979 13.0017 114.685 34.0847 115.652C40.2762 115.932 42.2482 116 58 116C73.7518 116 75.7287 115.932 81.9153 115.652C102.96 114.685 114.695 102.998 115.647 81.9153C115.932 75.7287 116 73.7518 116 58C116 42.2482 115.932 40.2762 115.652 34.0895C114.705 13.0452 103.003 1.3195 81.9202 0.352833C75.7287 0.0676667 73.7518 0 58 0V0ZM58 28.217C41.5522 28.217 28.217 41.5522 28.217 58C28.217 74.4478 41.5522 87.7878 58 87.7878C74.4478 87.7878 87.783 74.4527 87.783 58C87.783 41.5522 74.4478 28.217 58 28.217ZM58 77.3333C47.3232 77.3333 38.6667 68.6817 38.6667 58C38.6667 47.3232 47.3232 38.6667 58 38.6667C68.6768 38.6667 77.3333 47.3232 77.3333 58C77.3333 68.6817 68.6768 77.3333 58 77.3333ZM88.9623 20.0825C85.115 20.0825 81.9975 23.2 81.9975 27.0425C81.9975 30.885 85.115 34.0025 88.9623 34.0025C92.8048 34.0025 95.9175 30.885 95.9175 27.0425C95.9175 23.2 92.8048 20.0825 88.9623 20.0825Z" fill="black"/>
</g>
<defs>
<linearGradient id="paint0_linear" x1="58" y1="0" x2="58" y2="105" gradientUnits="userSpaceOnUse">
<stop offset="0.15625" stop-color="white"/>
<stop offset="0.911458" stop-color="#252525" stop-opacity="0"/>
</linearGradient>
<clipPath id="clip0">
<rect width="116" height="116" fill="white"/>
</clipPath>
</defs>
</svg>
