<svg width="206" height="119" viewBox="0 0 206 119" fill="none" xmlns="http://www.w3.org/2000/svg">
<g clip-path="url(#clip0)">
<path d="M2.34451 54.2221C1.9147 54.2221 1.57357 54.5589 1.518 55.0392L0.0117188 66.6348L1.518 78.0307C1.57357 78.511 1.9145 78.8455 2.34451 78.8455C2.76078 78.8455 3.09983 78.5133 3.16623 78.0349V78.0326V78.0349L4.95161 66.6346L3.16623 55.0369C3.10191 54.5587 2.7587 54.2221 2.34451 54.2221ZM10.8154 47.8866C10.7444 47.3883 10.3923 47.0447 9.95811 47.0447C9.52165 47.0447 9.16054 47.3995 9.1008 47.8866C9.1008 47.891 7.07606 66.6348 7.07606 66.6348L9.1008 84.9677C9.15845 85.4594 9.51957 85.8142 9.95811 85.8142C10.39 85.8142 10.7424 85.4685 10.8131 84.9724L13.1168 66.6348L10.8154 47.8866ZM42.7235 30.5932C41.8928 30.5932 41.206 31.2823 41.1662 32.1579L39.5536 66.6504L41.1662 88.9414C41.2082 89.8123 41.8928 90.4993 42.7235 90.4993C43.5498 90.4993 44.2343 89.81 44.283 88.9369V88.9437L46.1061 66.6504L44.283 32.1579C44.2341 31.2823 43.5496 30.5932 42.7235 30.5932ZM26.2089 42.5815C25.571 42.5815 25.0505 43.0979 24.9993 43.787L23.1829 66.6414L24.9993 88.7526C25.048 89.4373 25.5708 89.9536 26.2089 89.9536C26.8402 89.9536 27.3608 89.4373 27.4163 88.7526L29.4808 66.6414L27.4163 43.7824C27.3608 43.0979 26.8402 42.5815 26.2089 42.5815ZM59.5061 90.4972C60.5362 90.4972 61.3735 89.6552 61.4155 88.5775L62.9974 66.6616L61.4178 20.7395C61.3758 19.6618 60.5382 18.82 59.5084 18.82C58.4694 18.82 57.63 19.6641 57.5964 20.7418L56.1942 66.6593L57.5964 88.5842C57.6297 89.653 58.4692 90.4972 59.5061 90.4972ZM93.8641 90.6006C95.2819 90.6006 96.4517 89.4174 96.4781 87.9626V87.9782V87.9626L97.5814 66.6751L96.4779 13.6385C96.4535 12.186 95.2817 11.0008 93.8639 11.0008C92.444 11.0008 91.2722 12.1839 91.2499 13.6408L90.2642 66.6572C90.2642 66.6909 91.2499 87.9759 91.2499 87.9759C91.2724 89.4172 92.4463 90.6006 93.8641 90.6006ZM76.5543 90.5175C77.7883 90.5175 78.7828 89.5138 78.8161 88.2343V88.2499L80.1584 66.6663L78.8138 20.4119C78.7805 19.1321 77.786 18.131 76.552 18.131C75.3092 18.131 74.3147 19.1324 74.2881 20.4119L73.0942 66.6686L74.2904 88.2478C74.317 89.5138 75.3115 90.5175 76.5543 90.5175ZM34.4341 90.3154C35.1673 90.3154 35.7611 89.7203 35.8165 88.9369L37.7615 66.6416L35.8165 45.4328C35.7634 44.6493 35.1698 44.0587 34.4341 44.0587C33.69 44.0587 33.0962 44.6536 33.0497 45.4418L31.3372 66.6416L33.0497 88.9348C33.0984 89.7203 33.6898 90.3154 34.4341 90.3154ZM18.0504 89.0941C18.5864 89.0941 19.0206 88.6652 19.0826 88.0725L21.2668 66.6369L19.0847 44.3933C19.0203 43.7984 18.5862 43.3694 18.0502 43.3694C17.5074 43.3694 17.0732 43.8005 17.0179 44.3933L15.0951 66.6369L17.0179 88.0681C17.0712 88.6629 17.5053 89.0941 18.0504 89.0941ZM85.1761 19.6418C83.8359 19.6418 82.7613 20.7218 82.7349 22.1047L81.6451 66.6707L82.7349 88.1151C82.7615 89.4801 83.8336 90.5601 85.1761 90.5601C86.514 90.5601 87.5819 89.4824 87.6128 88.0995V88.1174L88.8355 66.673L87.6128 22.1C87.5817 20.7218 86.5138 19.6418 85.1761 19.6418ZM51.0837 90.5421C52.0097 90.5421 52.7739 89.7764 52.8183 88.7998L54.5196 66.657L52.8183 24.2754C52.7717 23.2965 52.0097 22.5333 51.0837 22.5333C50.1489 22.5333 49.3869 23.2988 49.347 24.2754L47.8407 66.657L49.3493 88.8089C49.3867 89.7764 50.1487 90.5421 51.0837 90.5421ZM70.0815 88.452V88.4406L71.5434 66.6639L70.0815 19.195C70.0459 18.0165 69.1288 17.0915 67.9968 17.0915C66.8581 17.0915 65.941 18.0142 65.9102 19.195L64.6121 66.6616L65.9123 88.4497C65.9433 89.617 66.8606 90.5396 67.997 90.5396C69.1311 90.5396 70.0438 89.617 70.0817 88.4429V88.452H70.0815ZM180.661 39.3015C177.189 39.3015 173.878 40.0132 170.861 41.295C168.845 18.1534 149.696 0 126.339 0C120.624 0 115.053 1.14053 110.133 3.06891C108.221 3.81879 107.711 4.59103 107.694 6.08847V87.5829C107.714 89.1544 108.916 90.4632 110.43 90.6183C110.494 90.625 180.207 90.6609 180.659 90.6609C194.65 90.6609 205.994 79.164 205.994 64.9823C205.994 50.8004 194.652 39.3015 180.661 39.3015ZM102.514 6.01675C100.993 6.01675 99.7433 7.283 99.7211 8.83866L98.578 66.6819L99.7233 87.6751C99.7433 89.2086 100.993 90.4725 102.514 90.4725C104.032 90.4725 105.281 89.2086 105.303 87.6527V87.6774L106.546 66.6819L105.303 8.83423C105.281 7.283 104.032 6.01675 102.514 6.01675ZM20.4717 106.985C17.4745 106.271 16.6636 105.889 16.6636 104.686C16.6636 103.837 17.3392 102.959 19.364 102.959C21.094 102.959 22.4454 103.671 23.6595 104.93L26.3865 102.25C24.6034 100.362 22.4433 99.2393 19.5016 99.2393C15.7711 99.2393 12.7473 101.374 12.7473 104.852C12.7473 108.628 15.1798 109.751 18.6621 110.57C22.2263 111.389 22.8754 111.939 22.8754 113.172C22.8754 114.622 21.8187 115.253 19.5813 115.253C17.7715 115.253 16.0702 114.624 14.7457 113.06L12.0182 115.525C13.4492 117.66 16.2072 119 19.3638 119C24.5253 119 26.7936 116.537 26.7936 112.898C26.7938 108.736 23.4709 107.696 20.4717 106.985ZM37.8697 99.2393C32.7128 99.2393 29.6623 103.289 29.6623 109.12C29.6623 114.95 32.7126 118.998 37.8697 118.998C43.0269 118.998 46.0815 114.95 46.0815 109.12C46.0815 103.289 43.0269 99.2393 37.8697 99.2393ZM37.8697 115.197C34.8195 115.197 33.5478 112.541 33.5478 109.122C33.5478 105.7 34.8193 103.045 37.8697 103.045C40.9246 103.045 42.1917 105.7 42.1917 109.122C42.1917 112.541 40.9246 115.197 37.8697 115.197ZM61.3425 110.298C61.3425 113.363 59.8539 115.253 57.4526 115.253C55.0491 115.253 53.5913 113.309 53.5913 110.244V99.5379H49.8078V110.298C49.8078 115.88 52.8892 119 57.4524 119C62.2595 119 65.1237 115.797 65.1237 110.245V99.5379H61.3425V110.298ZM81.4344 107.643C81.4344 108.711 81.4875 111.118 81.4875 111.83C81.244 111.336 80.6238 110.379 80.165 109.665L73.4641 99.5358H69.8465V118.7H73.5748V110.267C73.5748 109.199 73.5215 106.792 73.5215 106.08C73.763 106.572 74.3876 107.53 74.844 108.244L81.7864 118.699H85.1624V99.5356H81.4342V107.643H81.4344ZM95.9376 99.5379H90.023V118.702H95.6649C100.527 118.702 105.337 115.853 105.337 109.12C105.337 102.111 101.338 99.5379 95.9376 99.5379ZM95.6649 114.979H93.8044V103.262H95.8025C99.801 103.262 101.449 105.204 101.449 109.12C101.449 112.624 99.637 114.979 95.6649 114.979ZM117.031 103.042C118.732 103.042 119.813 103.81 120.489 105.124L124 103.482C122.81 100.993 120.648 99.2393 117.084 99.2393C112.146 99.2393 108.686 103.289 108.686 109.12C108.686 115.168 112.006 118.998 116.948 118.998C120.38 118.998 122.648 117.384 123.944 114.674L120.759 112.757C119.759 114.456 118.758 115.195 117.057 115.195C114.221 115.195 112.573 112.566 112.573 109.12C112.572 105.564 114.198 103.042 117.031 103.042ZM131.055 99.5379H127.274V118.702H138.638V114.921H131.055V99.5379ZM148.6 99.2393C143.439 99.2393 140.388 103.289 140.388 109.12C140.388 114.95 143.439 118.998 148.6 118.998C153.757 118.998 156.809 114.95 156.809 109.12C156.81 103.289 153.757 99.2393 148.6 99.2393ZM148.6 115.197C145.545 115.197 144.278 112.541 144.278 109.122C144.278 105.7 145.545 103.045 148.6 103.045C151.648 103.045 152.917 105.7 152.917 109.122C152.917 112.541 151.648 115.197 148.6 115.197ZM172.068 110.298C172.068 113.363 170.586 115.253 168.183 115.253C165.775 115.253 164.319 113.309 164.319 110.244V99.5379H160.538V110.298C160.538 115.88 163.617 119 168.183 119C172.99 119 175.852 115.797 175.852 110.245V99.5379H172.068V110.298ZM186.491 99.5379H180.579V118.702H186.221C191.086 118.702 195.89 115.853 195.89 109.12C195.89 102.111 191.894 99.5379 186.491 99.5379ZM186.221 114.979H184.358V103.262H186.358C190.352 103.262 192 105.204 192 109.12C192.001 112.624 190.191 114.979 186.221 114.979Z" fill="black"/>
</g>
<defs>
<clipPath id="clip0">
<rect width="206" height="119" fill="white"/>
</clipPath>
</defs>
</svg>
